# xmcd
#
# Track frame offsets:
#	150
#	15525
#	33600
#	56475
#	72569
#	94694
#	124919
#	152969
#	179219
#	195569
#	211919
#	228838
#
# Disc length: 3329 seconds
#
# Revision: 1
# Processed by: cddbd v1.5.2PL0 Copyright (c) Steve Scherf et al.
# Submitted via: audiograbber 1.83.01
#
DISCID=aa0cff0c
DTITLE=Preston Taylor and Rachael Thomson - Be Still
DYEAR=2013
DGENRE=
TTITLE0=More Holiness Give Me
TTITLE1=Every Breath
TTITLE2=Be Still My Soul
TTITLE3=Valiant Faith
TTITLE4=Savior, Redeemer of My Soul
TTITLE5=How Great Thou Art
TTITLE6=His Hands
TTITLE7=Poor Wayfaring Man of Grief
TTITLE8=The Maker's Touch
TTITLE9=Bring Him Home
TTITLE10=Christmas Lullaby (I Will Lead You Home)
TTITLE11=God Be With You Till We Meet Again
EXTD=
EXTT0=
EXTT1=
EXTT2=
EXTT3=
EXTT4=
EXTT5=
EXTT6=
EXTT7=
EXTT8=
EXTT9=
EXTT10=
EXTT11=
PLAYORDER=
